<svg xmlns="http://www.w3.org/2000/svg" xmlns:svg="http://www.w3.org/2000/svg" id="svg3122" width="12" height="12" version="1.1"><metadata id="metadata3127"/><path id="path2991" d="M 6,1 C 4.25,1 3.5,1.75 3,2.75 l 0,4.5 0.25,0.5 0.5,0.5 L 4.25,8.5 5,8.75 7,8.75 7.75,8.5 8.25,8.25 8.75,7.75 9,7.25 9,2.75 C 8.5,1.75 7.75,1 6,1 z M 5,2 7,2 7.5,2.25 8,3.25 7.5,3.75 7,4 5,4 4.5,3.75 4,3.25 l 0.5,-1 z" style="color:#000;fill:#333;fill-opacity:1;fill-rule:nonzero;stroke:#fff;stroke-width:2;marker:none;visibility:visible;display:inline;overflow:visible;enable-background:accumulate;stroke-linecap:butt;stroke-linejoin:round;stroke-miterlimit:4;stroke-opacity:1;stroke-dasharray:none;stroke-dashoffset:0"/><rect style="color:#000;fill:#0cf;fill-opacity:0;fill-rule:evenodd;stroke:none;stroke-width:1px;marker:none;visibility:visible;display:inline;overflow:visible;enable-background:accumulate" id="rect3765" width="12" height="12" x="0" y="0"/><g id="g2992" style="stroke:#fff;stroke-width:2;stroke-miterlimit:4;stroke-dasharray:none;stroke-linejoin:round"><path style="color:#000;fill:#333;fill-opacity:1;fill-rule:nonzero;stroke:#fff;stroke-width:2;stroke-linejoin:round;stroke-miterlimit:4;stroke-dasharray:none;marker:none;visibility:visible;display:inline;overflow:visible;enable-background:accumulate" id="path2988" d="m 2.25,11 0,-0.5 L 3.5,9 4.25,9 4.25,9.25 3.75,11 z"/><path id="path2990" d="m 9.75,11 0,-0.5 L 8.5,9 7.75,9 l 0,0.25 0.5,1.75 z" style="color:#000;fill:#333;fill-opacity:1;fill-rule:nonzero;stroke:#fff;stroke-width:2;stroke-linejoin:round;stroke-miterlimit:4;stroke-dasharray:none;marker:none;visibility:visible;display:inline;overflow:visible;enable-background:accumulate"/></g><path style="color:#000;fill:#333;fill-opacity:1;fill-rule:nonzero;stroke:none;stroke-width:2;marker:none;visibility:visible;display:inline;overflow:visible;enable-background:accumulate" id="path24879" d="M 6,1 C 4.25,1 3.5,1.75 3,2.75 l 0,4.5 0.25,0.5 0.5,0.5 L 4.25,8.5 5,8.75 7,8.75 7.75,8.5 8.25,8.25 8.75,7.75 9,7.25 9,2.75 C 8.5,1.75 7.75,1 6,1 z M 5,2 7,2 7.5,2.25 8,3.25 7.5,3.75 7,4 5,4 4.5,3.75 4,3.25 l 0.5,-1 z"/><path style="color:#000;fill:#333;fill-opacity:1;fill-rule:nonzero;stroke:none;stroke-width:2;marker:none;visibility:visible;display:inline;overflow:visible;enable-background:accumulate" id="path4060" d="M 2.5,11 2.5,10.5 3.75,9 4.5,9 4.5,9.25 3.75,11 z"/><path id="path4079" d="M 9.5,11 9.5,10.5 8.25,9 7.5,9 7.5,9.25 8.25,11 z" style="color:#000;fill:#333;fill-opacity:1;fill-rule:nonzero;stroke:none;stroke-width:2;marker:none;visibility:visible;display:inline;overflow:visible;enable-background:accumulate"/><path style="color:#000;fill:#fff;fill-opacity:1;fill-rule:evenodd;stroke:#fff;stroke-width:.33333334;stroke-miterlimit:4;stroke-dasharray:none;marker:none;visibility:visible;display:inline;overflow:visible;enable-background:accumulate" id="path4083" d="M 7,6 A 1,1 0 1 1 5,6 1,1 0 1 1 7,6 z" transform="matrix(0.64285714,0,0,0.64285714,2.1428572,1.6428572)"/></svg>