<svg xmlns="http://www.w3.org/2000/svg" xmlns:svg="http://www.w3.org/2000/svg" id="svg3122" width="18" height="18" version="1.1"><metadata id="metadata3127"/><g id="layer1" transform="translate(0,-1034.3622)"><path id="path3126" d="m 9.0000003,1036.4455 c -2.916668,0 -3.166667,1.25 -4.0000003,2.9167 l 0,5 0.25,1 0.75,1 1,0.75 1,0.25 2,0 1,-0.25 1,-0.75 0.75,-1 0.25,-1 0,-5 c -0.833333,-1.6667 -1.083333,-2.9167 -3.9999997,-2.9167 z M 8,1038.3622 l 2,0 1.5,0.5 0.5,1.5 -0.75,0.75 -1.25,0.25 -2,0 -1.25,-0.25 -0.75,-0.75 0.5,-1.5 z" style="color:#000;fill:#333;fill-opacity:1;fill-rule:nonzero;stroke:#fff;stroke-width:4;marker:none;visibility:visible;display:inline;overflow:visible;enable-background:accumulate;stroke-linejoin:round;stroke-miterlimit:4;stroke-dasharray:none"/><path id="path3128" d="m 4,1050.3622 0,-0.75 1.8750002,-1.75 1.1249998,0 0,0.375 -0.7499999,2.125 z" style="color:#000;fill:#333;fill-opacity:1;fill-rule:nonzero;stroke:#fff;stroke-width:4;marker:none;visibility:visible;display:inline;overflow:visible;enable-background:accumulate;stroke-linejoin:round;stroke-miterlimit:4;stroke-dasharray:none"/><path style="color:#000;fill:#333;fill-opacity:1;fill-rule:nonzero;stroke:#fff;stroke-width:4;marker:none;visibility:visible;display:inline;overflow:visible;enable-background:accumulate;stroke-linejoin:round;stroke-miterlimit:4;stroke-dasharray:none" id="path3130" d="m 14,1050.3622 0,-0.75 -1.875,-1.75 -1.125,0 0,0.375 0.75,2.125 z"/><rect id="rect24871" width="18" height="18" x="0" y="1034.362" style="color:#000;fill:#fff;fill-opacity:0;stroke:none;stroke-width:2;marker:none;visibility:visible;display:inline;overflow:visible;enable-background:accumulate"/><path style="color:#000;fill:#333;fill-opacity:1;fill-rule:nonzero;stroke:none;stroke-width:2;marker:none;visibility:visible;display:inline;overflow:visible;enable-background:accumulate" id="path24879" d="m 9.0000003,1036.4455 c -2.916668,0 -3.166667,1.25 -4.0000003,2.9167 l 0,5 0.25,1 0.75,1 1,0.75 1,0.25 2,0 1,-0.25 1,-0.75 0.75,-1 0.25,-1 0,-5 c -0.833333,-1.6667 -1.083333,-2.9167 -3.9999997,-2.9167 z M 8,1038.3622 l 2,0 1.5,0.5 0.5,1.5 -0.75,0.75 -1.25,0.25 -2,0 -1.25,-0.25 -0.75,-0.75 0.5,-1.5 z"/><path style="color:#000;fill:#333;fill-opacity:1;fill-rule:nonzero;stroke:none;stroke-width:2;marker:none;visibility:visible;display:inline;overflow:visible;enable-background:accumulate" id="path4060" d="m 4,1050.3622 0,-0.75 1.8750002,-1.75 1.1249998,0 0,0.375 -0.7499999,2.125 z"/><path id="path4079" d="m 14,1050.3622 0,-0.75 -1.875,-1.75 -1.125,0 0,0.375 0.75,2.125 z" style="color:#000;fill:#333;fill-opacity:1;fill-rule:nonzero;stroke:none;stroke-width:2;marker:none;visibility:visible;display:inline;overflow:visible;enable-background:accumulate"/><path style="color:#000;fill:#fff;fill-opacity:1;fill-rule:evenodd;stroke:#fff;stroke-width:.33333334;stroke-miterlimit:4;stroke-dasharray:none;marker:none;visibility:visible;display:inline;overflow:visible;enable-background:accumulate" id="path4083" d="M 7,6 A 1,1 0 1 1 5,6 1,1 0 1 1 7,6 z" transform="matrix(0.85714151,0,0,0.85714151,3.8571525,1038.2194)"/></g></svg>