<svg xmlns="http://www.w3.org/2000/svg" xmlns:svg="http://www.w3.org/2000/svg" id="svg3122" width="18" height="18" version="1.1"><metadata id="metadata3127"/><path id="path3755" d="m 4,5.5 0,7 0.5,1 1,0.5 8,0 1,-0.5 0.5,-1 0,-7 C 14,2 5,2 4,5.5 z M 7.5,5 8,5.5 8,8.5 7.5,9 5.5,9 5,8.5 5,6 5.5,5.5 6.5,5 z M 11,5.5 11.5,5 l 1,0 1,0.5 L 14,6 14,8.5 13.5,9 11.5,9 11,8.5 z m -3.75,5 C 7.66421,10.5 8,10.835786 8,11.25 8,11.664214 7.66421,12 7.25,12 6.83579,12 6.5,11.664214 6.5,11.25 6.5,10.835786 6.83579,10.5 7.25,10.5 z m 4.5,0 c 0.41421,0 0.75,0.335786 0.75,0.75 C 12.5,11.664214 12.16421,12 11.75,12 11.33579,12 11,11.664214 11,11.25 11,10.835786 11.33579,10.5 11.75,10.5 z" style="color:#000;fill:#333;fill-opacity:1;fill-rule:nonzero;stroke:#fff;stroke-width:4;marker:none;visibility:visible;display:inline;overflow:visible;enable-background:accumulate;stroke-miterlimit:4;stroke-dasharray:none;stroke-linejoin:round"/><path style="color:#000;fill:#333;fill-opacity:1;fill-rule:nonzero;stroke:none;stroke-width:2;marker:none;visibility:visible;display:inline;overflow:visible;enable-background:accumulate" id="path24869" d="m 4,5.5 0,7 0.5,1 1,0.5 8,0 1,-0.5 0.5,-1 0,-7 C 14,2 5,2 4,5.5 z M 7.5,5 8,5.5 8,8.5 7.5,9 5.5,9 5,8.5 5,6 5.5,5.5 6.5,5 z M 11,5.5 11.5,5 l 1,0 1,0.5 L 14,6 14,8.5 13.5,9 11.5,9 11,8.5 z m -3.75,5 C 7.66421,10.5 8,10.835786 8,11.25 8,11.664214 7.66421,12 7.25,12 6.83579,12 6.5,11.664214 6.5,11.25 6.5,10.835786 6.83579,10.5 7.25,10.5 z m 4.5,0 c 0.41421,0 0.75,0.335786 0.75,0.75 C 12.5,11.664214 12.16421,12 11.75,12 11.33579,12 11,11.664214 11,11.25 11,10.835786 11.33579,10.5 11.75,10.5 z"/><rect style="opacity:.5;color:#000;fill:none;stroke:none;stroke-width:2;marker:none;visibility:visible;display:inline;overflow:visible;enable-background:accumulate" id="rect24871" width="18" height="18" x="0" y="0"/><rect style="color:#000;fill:#fff;fill-opacity:1;fill-rule:evenodd;stroke:none;stroke-width:1px;marker:none;visibility:visible;display:inline;overflow:visible;enable-background:accumulate" id="rect2985" width="2" height="4" x="8.5" y="5" rx=".5" ry=".5"/></svg>